<svg width="1280" height="651" xmlns="http://www.w3.org/2000/svg"><g><path d="M-111,-92L-114,334L-110,83Z" fill="#fcffff" stroke="#fcffff"/><path d="M-111,-92L-110,83L40,-57Z" fill="#ffffff" stroke="#ffffff"/><path d="M-111,-92L40,-57L216,-93Z" fill="#f7fbfe" stroke="#f7fbfe"/><path d="M-111,-92L216,-93L805,-109Z" fill="#e4eef8" stroke="#e4eef8"/><path d="M40,-57L-110,83L64,4Z" fill="#fbfdff" stroke="#fbfdff"/><path d="M40,-57L64,4L216,-93Z" fill="#f3f8fd" stroke="#f3f8fd"/><path d="M216,-93L64,4L156,66Z" fill="#f0f6fc" stroke="#f0f6fc"/><path d="M216,-93L156,66L291,54Z" fill="#eaf2fa" stroke="#eaf2fa"/><path d="M216,-93L291,54L327,-67Z" fill="#e6eff8" stroke="#e6eff8"/><path d="M216,-93L327,-67L415,-78Z" fill="#e3edf7" stroke="#e3edf7"/><path d="M216,-93L415,-78L805,-109Z" fill="#cfe5f0" stroke="#cfe5f0"/><path d="M327,-67L291,54L386,1Z" fill="#e1ecf7" stroke="#e1ecf7"/><path d="M327,-67L386,1L415,-78Z" fill="#dceaf5" stroke="#dceaf5"/><path d="M415,-78L386,1L558,-22Z" fill="#d2e6f1" stroke="#d2e6f1"/><path d="M415,-78L558,-22L805,-109Z" fill="#bddbec" stroke="#bddbec"/><path d="M558,-22L386,1L494,78Z" fill="#cfe5f0" stroke="#cfe5f0"/><path d="M558,-22L494,78L619,67Z" fill="#c2deee" stroke="#c2deee"/><path d="M558,-22L619,67L682,-5Z" fill="#b8d9eb" stroke="#b8d9eb"/><path d="M558,-22L682,-5L805,-109Z" fill="#b0d3e9" stroke="#b0d3e9"/><path d="M682,-5L619,67L650,123Z" fill="#b4d6ea" stroke="#b4d6ea"/><path d="M682,-5L650,123L785,63Z" fill="#add1e7" stroke="#add1e7"/><path d="M682,-5L785,63L805,-109Z" fill="#a6cce5" stroke="#a6cce5"/><path d="M805,-109L785,63L856,14Z" fill="#9fc7e2" stroke="#9fc7e2"/><path d="M805,-109L856,14L942,-9Z" fill="#9ac2df" stroke="#9ac2df"/><path d="M805,-109L942,-9L1107,-106Z" fill="#91b9db" stroke="#91b9db"/><path d="M942,-9L856,14L1004,72Z" fill="#93bbdc" stroke="#93bbdc"/><path d="M942,-9L1004,72L1023,-21Z" fill="#8eb4d7" stroke="#8eb4d7"/><path d="M942,-9L1023,-21L1107,-106Z" fill="#8bafd4" stroke="#8bafd4"/><path d="M1023,-21L1004,72L1184,14Z" fill="#88a9cf" stroke="#88a9cf"/><path d="M1023,-21L1184,14L1107,-106Z" fill="#85a4cb" stroke="#85a4cb"/><path d="M1107,-106L1184,14L1204,-34Z" fill="#809cc5" stroke="#809cc5"/><path d="M1107,-106L1204,-34L1400,-13Z" fill="#8092be" stroke="#8092be"/><path d="M1204,-34L1184,14L1203,64Z" fill="#8098c2" stroke="#8098c2"/><path d="M1204,-34L1203,64L1388,23Z" fill="#808ebb" stroke="#808ebb"/><path d="M1204,-34L1388,23L1400,-13Z" fill="#8085b4" stroke="#8085b4"/><path d="M1400,-13L1388,23L1378,286Z" fill="#7e80ae" stroke="#7e80ae"/><path d="M1400,-13L1378,286L1421,673Z" fill="#446aad" stroke="#446aad"/><path d="M1400,-13L1421,673L1434,794Z" fill="#154598" stroke="#154598"/><path d="M-110,83L-114,334L-33,184Z" fill="#ebfcff" stroke="#ebfcff"/><path d="M-110,83L-33,184L64,4Z" fill="#fcffff" stroke="#fcffff"/><path d="M64,4L-33,184L156,66Z" fill="#f6fafe" stroke="#f6fafe"/><path d="M156,66L-33,184L29,234Z" fill="#eefbfe" stroke="#eefbfe"/><path d="M156,66L29,234L182,220Z" fill="#e5f6fc" stroke="#e5f6fc"/><path d="M156,66L182,220L291,54Z" fill="#e8f3fa" stroke="#e8f3fa"/><path d="M291,54L182,220L279,231Z" fill="#ddf0f9" stroke="#ddf0f9"/><path d="M291,54L279,231L463,126Z" fill="#d9ecf6" stroke="#d9ecf6"/><path d="M291,54L463,126L386,1Z" fill="#dbeaf5" stroke="#dbeaf5"/><path d="M386,1L463,126L494,78Z" fill="#d3e6f2" stroke="#d3e6f2"/><path d="M494,78L463,126L552,215Z" fill="#c4e3ef" stroke="#c4e3ef"/><path d="M494,78L552,215L619,67Z" fill="#bedeee" stroke="#bedeee"/><path d="M619,67L552,215L650,123Z" fill="#b4daec" stroke="#b4daec"/><path d="M785,63L650,123L833,165Z" fill="#a2cde5" stroke="#a2cde5"/><path d="M785,63L833,165L856,14Z" fill="#9ec6e1" stroke="#9ec6e1"/><path d="M856,14L833,165L1004,72Z" fill="#96bfde" stroke="#96bfde"/><path d="M1004,72L833,165L875,214Z" fill="#8ebedd" stroke="#8ebedd"/><path d="M1004,72L875,214L1026,127Z" fill="#89b7d9" stroke="#89b7d9"/><path d="M1004,72L1026,127L1184,14Z" fill="#88a9cf" stroke="#88a9cf"/><path d="M1184,14L1026,127L1203,64Z" fill="#82a0c8" stroke="#82a0c8"/><path d="M1203,64L1026,127L1198,238Z" fill="#7b9fc7" stroke="#7b9fc7"/><path d="M1203,64L1198,238L1266,192Z" fill="#7694bf" stroke="#7694bf"/><path d="M1203,64L1266,192L1336,151Z" fill="#798eba" stroke="#798eba"/><path d="M1203,64L1336,151L1388,23Z" fill="#8088b6" stroke="#8088b6"/><path d="M1388,23L1336,151L1378,286Z" fill="#7780b0" stroke="#7780b0"/><path d="M-33,184L-114,334L29,234Z" fill="#daf7ff" stroke="#daf7ff"/><path d="M29,234L-114,334L34,353Z" fill="#c4eaff" stroke="#c4eaff"/><path d="M29,234L34,353L144,270Z" fill="#c5eafe" stroke="#c5eafe"/><path d="M29,234L144,270L182,220Z" fill="#d2f0fc" stroke="#d2f0fc"/><path d="M182,220L144,270L250,352Z" fill="#bde5fa" stroke="#bde5fa"/><path d="M182,220L250,352L279,231Z" fill="#bee5f9" stroke="#bee5f9"/><path d="M279,231L250,352L414,275Z" fill="#b2def7" stroke="#b2def7"/><path d="M279,231L414,275L463,126Z" fill="#c3e6f4" stroke="#c3e6f4"/><path d="M463,126L414,275L552,215Z" fill="#b9e1f0" stroke="#b9e1f0"/><path d="M552,215L414,275L518,355Z" fill="#9dd4f0" stroke="#9dd4f0"/><path d="M552,215L518,355L623,295Z" fill="#8fcded" stroke="#8fcded"/><path d="M552,215L623,295L650,123Z" fill="#a3d6ec" stroke="#a3d6ec"/><path d="M650,123L623,295L742,320Z" fill="#8fcce9" stroke="#8fcce9"/><path d="M650,123L742,320L833,165Z" fill="#93cae6" stroke="#93cae6"/><path d="M833,165L742,320L875,214Z" fill="#81c1e2" stroke="#81c1e2"/><path d="M875,214L742,320L925,267Z" fill="#72b8e0" stroke="#72b8e0"/><path d="M875,214L925,267L1026,127Z" fill="#7db7db" stroke="#7db7db"/><path d="M1026,127L925,267L1023,251Z" fill="#75afd7" stroke="#75afd7"/><path d="M1026,127L1023,251L1104,270Z" fill="#70a7d1" stroke="#70a7d1"/><path d="M1026,127L1104,270L1198,238Z" fill="#6da0cb" stroke="#6da0cb"/><path d="M1198,238L1104,270L1239,283Z" fill="#578fc4" stroke="#578fc4"/><path d="M1198,238L1239,283L1266,192Z" fill="#608cbe" stroke="#608cbe"/><path d="M1266,192L1239,283L1378,286Z" fill="#5b81b8" stroke="#5b81b8"/><path d="M1266,192L1378,286L1336,151Z" fill="#6882b4" stroke="#6882b4"/><path d="M-114,334L-70,750L-79,563Z" fill="#92afdd" stroke="#92afdd"/><path d="M-114,334L-79,563L-84,415Z" fill="#9fcff2" stroke="#9fcff2"/><path d="M-114,334L-84,415L34,353Z" fill="#b3dffa" stroke="#b3dffa"/><path d="M34,353L-84,415L92,512Z" fill="#9dd0f3" stroke="#9dd0f3"/><path d="M34,353L92,512L102,361Z" fill="#9cd0f4" stroke="#9cd0f4"/><path d="M34,353L102,361L144,270Z" fill="#b3e0fc" stroke="#b3e0fc"/><path d="M144,270L102,361L238,368Z" fill="#acdcfa" stroke="#acdcfa"/><path d="M144,270L238,368L250,352Z" fill="#a9daf9" stroke="#a9daf9"/><path d="M250,352L238,368L287,433Z" fill="#96ccf2" stroke="#96ccf2"/><path d="M250,352L287,433L398,435Z" fill="#8bc5ee" stroke="#8bc5ee"/><path d="M250,352L398,435L414,275Z" fill="#96cdf2" stroke="#96cdf2"/><path d="M414,275L398,435L518,355Z" fill="#8ac9ee" stroke="#8ac9ee"/><path d="M518,355L398,435L563,405Z" fill="#77bde7" stroke="#77bde7"/><path d="M518,355L563,405L623,295Z" fill="#79c0ea" stroke="#79c0ea"/><path d="M623,295L563,405L699,461Z" fill="#65b3e4" stroke="#65b3e4"/><path d="M623,295L699,461L742,320Z" fill="#65b4e4" stroke="#65b4e4"/><path d="M742,320L699,461L774,385Z" fill="#56a9de" stroke="#56a9de"/><path d="M742,320L774,385L925,267Z" fill="#60b0e2" stroke="#60b0e2"/><path d="M925,267L774,385L864,433Z" fill="#50a4dc" stroke="#50a4dc"/><path d="M925,267L864,433L975,488Z" fill="#3f96d4" stroke="#3f96d4"/><path d="M925,267L975,488L1059,468Z" fill="#368cce" stroke="#368cce"/><path d="M925,267L1059,468L1023,251Z" fill="#4c9ad5" stroke="#4c9ad5"/><path d="M1023,251L1059,468L1104,270Z" fill="#4791cf" stroke="#4791cf"/><path d="M1104,270L1059,468L1197,446Z" fill="#2f7cc2" stroke="#2f7cc2"/><path d="M1104,270L1197,446L1239,283Z" fill="#3d81c3" stroke="#3d81c3"/><path d="M1239,283L1197,446L1267,453Z" fill="#2b6db6" stroke="#2b6db6"/><path d="M1239,283L1267,453L1327,437Z" fill="#2c67b2" stroke="#2c67b2"/><path d="M1239,283L1327,437L1378,286Z" fill="#3d6db5" stroke="#3d6db5"/><path d="M1378,286L1327,437L1421,673Z" fill="#19499f" stroke="#19499f"/><path d="M-84,415L-79,563L92,512Z" fill="#91c0ea" stroke="#91c0ea"/><path d="M102,361L92,512L238,368Z" fill="#96ccf1" stroke="#96ccf1"/><path d="M238,368L92,512L132,538Z" fill="#87bdea" stroke="#87bdea"/><path d="M238,368L132,538L287,433Z" fill="#88c0eb" stroke="#88c0eb"/><path d="M287,433L132,538L291,535Z" fill="#7db1e2" stroke="#7db1e2"/><path d="M287,433L291,535L398,435Z" fill="#7bb6e6" stroke="#7bb6e6"/><path d="M398,435L291,535L450,514Z" fill="#6face0" stroke="#6face0"/><path d="M398,435L450,514L563,405Z" fill="#6db2e2" stroke="#6db2e2"/><path d="M563,405L450,514L562,556Z" fill="#5ca4da" stroke="#5ca4da"/><path d="M563,405L562,556L699,461Z" fill="#52a1da" stroke="#52a1da"/><path d="M699,461L562,556L605,573Z" fill="#4b8fcd" stroke="#4b8fcd"/><path d="M699,461L605,573L624,619Z" fill="#4786c8" stroke="#4786c8"/><path d="M699,461L624,619L838,574Z" fill="#3d7fc4" stroke="#3d7fc4"/><path d="M699,461L838,574L864,433Z" fill="#358ccf" stroke="#358ccf"/><path d="M699,461L864,433L774,385Z" fill="#469ed8" stroke="#469ed8"/><path d="M864,433L838,574L930,514Z" fill="#2c7fc7" stroke="#2c7fc7"/><path d="M864,433L930,514L975,488Z" fill="#2b83ca" stroke="#2b83ca"/><path d="M1059,468L975,488L1019,615Z" fill="#1f69b8" stroke="#1f69b8"/><path d="M1059,468L1019,615L1193,556Z" fill="#1957ab" stroke="#1957ab"/><path d="M1059,468L1193,556L1197,446Z" fill="#1562b3" stroke="#1562b3"/><path d="M1197,446L1193,556L1289,507Z" fill="#1353a8" stroke="#1353a8"/><path d="M1197,446L1289,507L1267,453Z" fill="#1859ab" stroke="#1859ab"/><path d="M1267,453L1289,507L1327,437Z" fill="#1954a7" stroke="#1954a7"/><path d="M1327,437L1289,507L1334,594Z" fill="#13439c" stroke="#13439c"/><path d="M1327,437L1334,594L1421,673Z" fill="#122b8a" stroke="#122b8a"/><path d="M-79,563L-70,750L-30,713Z" fill="#8f86be" stroke="#8f86be"/><path d="M-79,563L-30,713L13,686Z" fill="#8e8dc3" stroke="#8e8dc3"/><path d="M-79,563L13,686L92,512Z" fill="#8ca1d3" stroke="#8ca1d3"/><path d="M92,512L13,686L132,538Z" fill="#87a0d4" stroke="#87a0d4"/><path d="M132,538L13,686L124,688Z" fill="#858cc5" stroke="#858cc5"/><path d="M132,538L124,688L269,716Z" fill="#7e85c0" stroke="#7e85c0"/><path d="M132,538L269,716L291,535Z" fill="#7b93cb" stroke="#7b93cb"/><path d="M291,535L269,716L443,646Z" fill="#7181c0" stroke="#7181c0"/><path d="M291,535L443,646L450,514Z" fill="#6b94cd" stroke="#6b94cd"/><path d="M450,514L443,646L480,619Z" fill="#6388c4" stroke="#6388c4"/><path d="M450,514L480,619L562,556Z" fill="#5e8fca" stroke="#5e8fca"/><path d="M562,556L480,619L624,619Z" fill="#547fbf" stroke="#547fbf"/><path d="M562,556L624,619L605,573Z" fill="#4e80c2" stroke="#4e80c2"/><path d="M838,574L624,619L752,694Z" fill="#3964b0" stroke="#3964b0"/><path d="M838,574L752,694L865,690Z" fill="#2f55a6" stroke="#2f55a6"/><path d="M838,574L865,690L1019,615Z" fill="#2655a8" stroke="#2655a8"/><path d="M838,574L1019,615L930,514Z" fill="#2565b5" stroke="#2565b5"/><path d="M930,514L1019,615L975,488Z" fill="#226ab9" stroke="#226ab9"/><path d="M1193,556L1019,615L1185,656Z" fill="#143d97" stroke="#143d97"/><path d="M1193,556L1185,656L1260,613Z" fill="#11338f" stroke="#11338f"/><path d="M1193,556L1260,613L1289,507Z" fill="#123e98" stroke="#123e98"/><path d="M1289,507L1260,613L1334,594Z" fill="#123390" stroke="#123390"/><path d="M1334,594L1260,613L1421,673Z" fill="#101b7e" stroke="#101b7e"/><path d="M-30,713L-70,750L43,808Z" fill="#8a7faa" stroke="#8a7faa"/><path d="M-30,713L43,808L13,686Z" fill="#897daf" stroke="#897daf"/><path d="M13,686L43,808L124,688Z" fill="#857baf" stroke="#857baf"/><path d="M124,688L43,808L176,825Z" fill="#7f78a3" stroke="#7f78a3"/><path d="M124,688L176,825L252,777Z" fill="#7a75a4" stroke="#7a75a4"/><path d="M124,688L252,777L269,716Z" fill="#7973ac" stroke="#7973ac"/><path d="M269,716L252,777L377,828Z" fill="#716f9e" stroke="#716f9e"/><path d="M269,716L377,828L443,646Z" fill="#6b6ba6" stroke="#6b6ba6"/><path d="M443,646L377,828L533,840Z" fill="#5f6799" stroke="#5f6799"/><path d="M443,646L533,840L480,619Z" fill="#5d65a8" stroke="#5d65a8"/><path d="M480,619L533,840L624,619Z" fill="#5361a8" stroke="#5361a8"/><path d="M624,619L533,840L642,820Z" fill="#495b96" stroke="#495b96"/><path d="M624,619L642,820L752,694Z" fill="#40549f" stroke="#40549f"/><path d="M752,694L642,820L825,814Z" fill="#354f8c" stroke="#354f8c"/><path d="M752,694L825,814L865,690Z" fill="#2d4893" stroke="#2d4893"/><path d="M865,690L825,814L884,821Z" fill="#284386" stroke="#284386"/><path d="M865,690L884,821L1062,744Z" fill="#203b87" stroke="#203b87"/><path d="M865,690L1062,744L1019,615Z" fill="#1e3a94" stroke="#1e3a94"/><path d="M1019,615L1062,744L1185,656Z" fill="#162f8c" stroke="#162f8c"/><path d="M1185,656L1062,744L1164,747Z" fill="#11207c" stroke="#11207c"/><path d="M1185,656L1164,747L1260,613Z" fill="#0f1f81" stroke="#0f1f81"/><path d="M1260,613L1164,747L1313,834Z" fill="#0e116e" stroke="#0e116e"/><path d="M1260,613L1313,834L1421,673Z" fill="#0e066b" stroke="#0e066b"/><path d="M1421,673L1313,834L1434,794Z" fill="#0d0056" stroke="#0d0056"/><path d="M176,825L533,840L377,828Z" fill="#696c8e" stroke="#696c8e"/><path d="M176,825L377,828L252,777Z" fill="#737096" stroke="#737096"/><path d="M533,840L1313,834L884,821Z" fill="#213e75" stroke="#213e75"/><path d="M533,840L884,821L642,820Z" fill="#3b5381" stroke="#3b5381"/><path d="M642,820L884,821L825,814Z" fill="#2f4b7f" stroke="#2f4b7f"/><path d="M884,821L1313,834L1062,744Z" fill="#13276d" stroke="#13276d"/><path d="M1062,744L1313,834L1164,747Z" fill="#0d1b6a" stroke="#0d1b6a"/></g></svg>