<svg width="1280" height="678" xmlns="http://www.w3.org/2000/svg"><g><path d="M-91,-118L-107,678L-92,321Z" fill="#ffc9de" stroke="#ffc9de"/><path d="M-91,-118L-92,321L-82,131Z" fill="#fff3eb" stroke="#fff3eb"/><path d="M-91,-118L-82,131L61,33Z" fill="#fff7f2" stroke="#fff7f2"/><path d="M-91,-118L61,33L109,-72Z" fill="#fff3ef" stroke="#fff3ef"/><path d="M-91,-118L109,-72L283,-100Z" fill="#feece9" stroke="#feece9"/><path d="M-91,-118L283,-100L681,-125Z" fill="#fddbde" stroke="#fddbde"/><path d="M109,-72L61,33L260,70Z" fill="#fee7e4" stroke="#fee7e4"/><path d="M109,-72L260,70L283,-100Z" fill="#fee2e0" stroke="#fee2e0"/><path d="M283,-100L260,70L317,19Z" fill="#fddcde" stroke="#fddcde"/><path d="M283,-100L317,19L330,-16Z" fill="#fddadd" stroke="#fddadd"/><path d="M283,-100L330,-16L519,-42Z" fill="#fdd4dc" stroke="#fdd4dc"/><path d="M283,-100L519,-42L681,-125Z" fill="#fcc7d7" stroke="#fcc7d7"/><path d="M330,-16L317,19L483,37Z" fill="#fdd3da" stroke="#fdd3da"/><path d="M330,-16L483,37L519,-42Z" fill="#fdcdd9" stroke="#fdcdd9"/><path d="M519,-42L483,37L632,129Z" fill="#fcbdd0" stroke="#fcbdd0"/><path d="M519,-42L632,129L681,-125Z" fill="#fbb8d2" stroke="#fbb8d2"/><path d="M681,-125L632,129L793,26Z" fill="#f4a8cc" stroke="#f4a8cc"/><path d="M681,-125L793,26L806,-126Z" fill="#ed9eca" stroke="#ed9eca"/><path d="M806,-126L793,26L955,40Z" fill="#e28ec5" stroke="#e28ec5"/><path d="M806,-126L955,40L998,-112Z" fill="#d789c2" stroke="#d789c2"/><path d="M998,-112L955,40L1141,-93Z" fill="#c382bd" stroke="#c382bd"/><path d="M998,-112L1141,-93L1461,-68Z" fill="#a580b5" stroke="#a580b5"/><path d="M1141,-93L955,40L1107,121Z" fill="#bd7eb9" stroke="#bd7eb9"/><path d="M1141,-93L1107,121L1262,-79Z" fill="#ab80b7" stroke="#ab80b7"/><path d="M1141,-93L1262,-79L1461,-68Z" fill="#9680b1" stroke="#9680b1"/><path d="M1262,-79L1107,121L1326,46Z" fill="#a07db0" stroke="#a07db0"/><path d="M1262,-79L1326,46L1461,-68Z" fill="#8b80af" stroke="#8b80af"/><path d="M1461,-68L1326,46L1484,116Z" fill="#807da8" stroke="#807da8"/><path d="M-82,131L-92,321L-80,168Z" fill="#ffe0e5" stroke="#ffe0e5"/><path d="M-82,131L-80,168L94,217Z" fill="#ffe2e2" stroke="#ffe2e2"/><path d="M-82,131L94,217L61,33Z" fill="#ffe6e1" stroke="#ffe6e1"/><path d="M61,33L94,217L260,70Z" fill="#fedfd9" stroke="#fedfd9"/><path d="M260,70L94,217L273,194Z" fill="#fecfd1" stroke="#fecfd1"/><path d="M260,70L273,194L404,180Z" fill="#fdc8ce" stroke="#fdc8ce"/><path d="M260,70L404,180L317,19Z" fill="#fdd0d2" stroke="#fdd0d2"/><path d="M317,19L404,180L483,37Z" fill="#fdcbd2" stroke="#fdcbd2"/><path d="M483,37L404,180L546,213Z" fill="#fcb9c9" stroke="#fcb9c9"/><path d="M483,37L546,213L632,129Z" fill="#fcb2c6" stroke="#fcb2c6"/><path d="M632,129L546,213L633,256Z" fill="#fc9dc0" stroke="#fc9dc0"/><path d="M632,129L633,256L770,284Z" fill="#f78dbb" stroke="#f78dbb"/><path d="M632,129L770,284L793,26Z" fill="#f193bc" stroke="#f193bc"/><path d="M793,26L770,284L955,40Z" fill="#e485b9" stroke="#e485b9"/><path d="M955,40L770,284L981,266Z" fill="#da70b1" stroke="#da70b1"/><path d="M955,40L981,266L1107,121Z" fill="#c673af" stroke="#c673af"/><path d="M1107,121L981,266L1141,255Z" fill="#bb62a8" stroke="#bb62a8"/><path d="M1107,121L1141,255L1238,223Z" fill="#ac64a5" stroke="#ac64a5"/><path d="M1107,121L1238,223L1326,46Z" fill="#a172a6" stroke="#a172a6"/><path d="M1326,46L1238,223L1475,210Z" fill="#8c6c9f" stroke="#8c6c9f"/><path d="M1326,46L1475,210L1484,116Z" fill="#80749e" stroke="#80749e"/><path d="M1484,116L1475,210L1471,506Z" fill="#805090" stroke="#805090"/><path d="M1484,116L1471,506L1466,843Z" fill="#671278" stroke="#671278"/><path d="M-80,168L-92,321L94,217Z" fill="#ffd5de" stroke="#ffd5de"/><path d="M94,217L-92,321L21,368Z" fill="#ffbed5" stroke="#ffbed5"/><path d="M94,217L21,368L222,348Z" fill="#feb2cb" stroke="#feb2cb"/><path d="M94,217L222,348L273,194Z" fill="#febbcb" stroke="#febbcb"/><path d="M273,194L222,348L368,424Z" fill="#fd9fc0" stroke="#fd9fc0"/><path d="M273,194L368,424L404,180Z" fill="#fdaac5" stroke="#fdaac5"/><path d="M404,180L368,424L546,213Z" fill="#fda0c1" stroke="#fda0c1"/><path d="M546,213L368,424L577,401Z" fill="#fc82b6" stroke="#fc82b6"/><path d="M546,213L577,401L633,256Z" fill="#fc88b8" stroke="#fc88b8"/><path d="M633,256L577,401L646,403Z" fill="#fa70b0" stroke="#fa70b0"/><path d="M633,256L646,403L770,284Z" fill="#f671b1" stroke="#f671b1"/><path d="M770,284L646,403L770,410Z" fill="#ee58a8" stroke="#ee58a8"/><path d="M770,284L770,410L969,353Z" fill="#e34ba5" stroke="#e34ba5"/><path d="M770,284L969,353L981,266Z" fill="#d954a7" stroke="#d954a7"/><path d="M981,266L969,353L1141,255Z" fill="#c34fa2" stroke="#c34fa2"/><path d="M1141,255L969,353L1179,372Z" fill="#b8429c" stroke="#b8429c"/><path d="M1141,255L1179,372L1246,341Z" fill="#a74398" stroke="#a74398"/><path d="M1141,255L1246,341L1238,223Z" fill="#a4529c" stroke="#a4529c"/><path d="M1238,223L1246,341L1423,350Z" fill="#934895" stroke="#934895"/><path d="M1238,223L1423,350L1475,210Z" fill="#865596" stroke="#865596"/><path d="M1475,210L1423,350L1471,506Z" fill="#7e3888" stroke="#7e3888"/><path d="M-92,321L-107,678L-74,531Z" fill="#de8fc5" stroke="#de8fc5"/><path d="M-92,321L-74,531L21,368Z" fill="#f99ecd" stroke="#f99ecd"/><path d="M21,368L-74,531L23,545Z" fill="#e988c1" stroke="#e988c1"/><path d="M21,368L23,545L210,477Z" fill="#f080bc" stroke="#f080bc"/><path d="M21,368L210,477L222,348Z" fill="#f98fbe" stroke="#f98fbe"/><path d="M222,348L210,477L368,424Z" fill="#f77eb5" stroke="#f77eb5"/><path d="M368,424L210,477L359,508Z" fill="#ec6bae" stroke="#ec6bae"/><path d="M368,424L359,508L471,549Z" fill="#e264a9" stroke="#e264a9"/><path d="M368,424L471,549L577,401Z" fill="#f05baa" stroke="#f05baa"/><path d="M577,401L471,549L641,548Z" fill="#df50a2" stroke="#df50a2"/><path d="M577,401L641,548L646,403Z" fill="#f149a4" stroke="#f149a4"/><path d="M646,403L641,548L770,410Z" fill="#eb3ea0" stroke="#eb3ea0"/><path d="M770,410L641,548L822,522Z" fill="#d53399" stroke="#d53399"/><path d="M770,410L822,522L969,353Z" fill="#da299a" stroke="#da299a"/><path d="M969,353L822,522L1003,581Z" fill="#bd1a91" stroke="#bd1a91"/><path d="M969,353L1003,581L1075,562Z" fill="#a9158c" stroke="#a9158c"/><path d="M969,353L1075,562L1179,372Z" fill="#b31b90" stroke="#b31b90"/><path d="M1179,372L1075,562L1264,533Z" fill="#921286" stroke="#921286"/><path d="M1179,372L1264,533L1246,341Z" fill="#99208b" stroke="#99208b"/><path d="M1246,341L1264,533L1423,350Z" fill="#8c2388" stroke="#8c2388"/><path d="M1423,350L1264,533L1471,506Z" fill="#76127f" stroke="#76127f"/><path d="M-74,531L-107,678L23,545Z" fill="#c08cba" stroke="#c08cba"/><path d="M23,545L-107,678L100,626Z" fill="#b387b3" stroke="#b387b3"/><path d="M23,545L100,626L210,477Z" fill="#cd7db1" stroke="#cd7db1"/><path d="M210,477L100,626L166,712Z" fill="#b779a8" stroke="#b779a8"/><path d="M210,477L166,712L349,691Z" fill="#ae72a1" stroke="#ae72a1"/><path d="M210,477L349,691L359,508Z" fill="#c96ca5" stroke="#c96ca5"/><path d="M359,508L349,691L471,549Z" fill="#bf64a1" stroke="#bf64a1"/><path d="M471,549L349,691L531,689Z" fill="#a75e99" stroke="#a75e99"/><path d="M471,549L531,689L641,548Z" fill="#b95299" stroke="#b95299"/><path d="M641,548L531,689L655,683Z" fill="#a64a92" stroke="#a64a92"/><path d="M641,548L655,683L822,522Z" fill="#b53a92" stroke="#b53a92"/><path d="M822,522L655,683L803,716Z" fill="#98308a" stroke="#98308a"/><path d="M822,522L803,716L985,642Z" fill="#901e86" stroke="#901e86"/><path d="M822,522L985,642L1003,581Z" fill="#961a87" stroke="#961a87"/><path d="M1003,581L985,642L1107,619Z" fill="#78147f" stroke="#78147f"/><path d="M1003,581L1107,619L1075,562Z" fill="#7e1381" stroke="#7e1381"/><path d="M1075,562L1107,619L1264,533Z" fill="#75127f" stroke="#75127f"/><path d="M1264,533L1107,619L1330,622Z" fill="#5e1279" stroke="#5e1279"/><path d="M1264,533L1330,622L1471,506Z" fill="#581277" stroke="#581277"/><path d="M1471,506L1330,622L1415,663Z" fill="#3e1271" stroke="#3e1271"/><path d="M1471,506L1415,663L1466,843Z" fill="#1f1267" stroke="#1f1267"/><path d="M-107,678L-67,799L100,626Z" fill="#9289ad" stroke="#9289ad"/><path d="M100,626L-67,799L125,774Z" fill="#8583a4" stroke="#8583a4"/><path d="M100,626L125,774L166,712Z" fill="#907ca0" stroke="#907ca0"/><path d="M166,712L125,774L173,765Z" fill="#7f799a" stroke="#7f799a"/><path d="M166,712L173,765L349,691Z" fill="#887397" stroke="#887397"/><path d="M349,691L173,765L351,771Z" fill="#806d94" stroke="#806d94"/><path d="M349,691L351,771L531,689Z" fill="#896393" stroke="#896393"/><path d="M531,689L351,771L469,837Z" fill="#7d5e8d" stroke="#7d5e8d"/><path d="M531,689L469,837L622,831Z" fill="#7c5387" stroke="#7c5387"/><path d="M531,689L622,831L655,683Z" fill="#814b89" stroke="#814b89"/><path d="M655,683L622,831L803,716Z" fill="#773c83" stroke="#773c83"/><path d="M803,716L622,831L819,850Z" fill="#6f327b" stroke="#6f327b"/><path d="M803,716L819,850L984,837Z" fill="#601e75" stroke="#601e75"/><path d="M803,716L984,837L985,642Z" fill="#5c1b79" stroke="#5c1b79"/><path d="M985,642L984,837L1107,619Z" fill="#581578" stroke="#581578"/><path d="M1107,619L984,837L1069,873Z" fill="#40136f" stroke="#40136f"/><path d="M1107,619L1069,873L1320,822Z" fill="#2c126a" stroke="#2c126a"/><path d="M1107,619L1320,822L1330,622Z" fill="#34126e" stroke="#34126e"/><path d="M1330,622L1320,822L1415,663Z" fill="#1d1268" stroke="#1d1268"/><path d="M1415,663L1320,822L1466,843Z" fill="#03125f" stroke="#03125f"/><path d="M-67,799L469,837L125,774Z" fill="#7e7893" stroke="#7e7893"/><path d="M125,774L469,837L173,765Z" fill="#7e7090" stroke="#7e7090"/><path d="M173,765L469,837L351,771Z" fill="#7e6a8e" stroke="#7e6a8e"/><path d="M469,837L1069,873L819,850Z" fill="#6b2b74" stroke="#6b2b74"/><path d="M469,837L819,850L622,831Z" fill="#7c467d" stroke="#7c467d"/><path d="M819,850L1069,873L984,837Z" fill="#50196c" stroke="#50196c"/><path d="M1069,873L1466,843L1320,822Z" fill="#17125e" stroke="#17125e"/></g></svg>