<svg width="1280" height="678" xmlns="http://www.w3.org/2000/svg"><g><path d="M-74,-74L-116,80L27,-18Z" fill="#e43755" stroke="#e43755"/><path d="M-74,-74L27,-18L380,-101Z" fill="#f53d56" stroke="#f53d56"/><path d="M27,-18L-116,80L-73,205Z" fill="#e4645b" stroke="#e4645b"/><path d="M27,-18L-73,205L110,25Z" fill="#ed6b5c" stroke="#ed6b5c"/><path d="M27,-18L110,25L266,-17Z" fill="#f8605a" stroke="#f8605a"/><path d="M27,-18L266,-17L380,-101Z" fill="#fd5f5e" stroke="#fd5f5e"/><path d="M266,-17L110,25L223,86Z" fill="#fd7f60" stroke="#fd7f60"/><path d="M266,-17L223,86L434,18Z" fill="#fe966f" stroke="#fe966f"/><path d="M266,-17L434,18L380,-101Z" fill="#fe8472" stroke="#fe8472"/><path d="M380,-101L434,18L512,-38Z" fill="#fe887d" stroke="#fe887d"/><path d="M380,-101L512,-38L677,-117Z" fill="#fe7e86" stroke="#fe7e86"/><path d="M512,-38L434,18L479,46Z" fill="#ffa385" stroke="#ffa385"/><path d="M512,-38L479,46L641,58Z" fill="#ffaf90" stroke="#ffaf90"/><path d="M512,-38L641,58L677,-117Z" fill="#fb9486" stroke="#fb9486"/><path d="M677,-117L641,58L801,101Z" fill="#f4a77f" stroke="#f4a77f"/><path d="M677,-117L801,101L872,-68Z" fill="#e78e79" stroke="#e78e79"/><path d="M677,-117L872,-68L924,-105Z" fill="#de7374" stroke="#de7374"/><path d="M872,-68L801,101L1033,49Z" fill="#ce9e7b" stroke="#ce9e7b"/><path d="M872,-68L1033,49L924,-105Z" fill="#c4767a" stroke="#c4767a"/><path d="M924,-105L1033,49L1094,-59Z" fill="#af6882" stroke="#af6882"/><path d="M924,-105L1094,-59L1425,-35Z" fill="#8a3f8f" stroke="#8a3f8f"/><path d="M1094,-59L1033,49L1089,64Z" fill="#9f778c" stroke="#9f778c"/><path d="M1094,-59L1089,64L1236,-37Z" fill="#8c5b92" stroke="#8c5b92"/><path d="M1094,-59L1236,-37L1425,-35Z" fill="#7f349d" stroke="#7f349d"/><path d="M1236,-37L1089,64L1247,67Z" fill="#7f659a" stroke="#7f659a"/><path d="M1236,-37L1247,67L1425,-35Z" fill="#7f3da5" stroke="#7f3da5"/><path d="M1425,-35L1247,67L1471,47Z" fill="#7f3aaf" stroke="#7f3aaf"/><path d="M-116,80L-123,327L-73,205Z" fill="#df887b" stroke="#df887b"/><path d="M110,25L-73,205L32,278Z" fill="#ed9974" stroke="#ed9974"/><path d="M110,25L32,278L184,190Z" fill="#f6a975" stroke="#f6a975"/><path d="M110,25L184,190L223,86Z" fill="#fd9a62" stroke="#fd9a62"/><path d="M223,86L184,190L319,241Z" fill="#feca81" stroke="#feca81"/><path d="M223,86L319,241L434,18Z" fill="#ffc37b" stroke="#ffc37b"/><path d="M434,18L319,241L479,46Z" fill="#ffca83" stroke="#ffca83"/><path d="M479,46L319,241L529,188Z" fill="#ffe699" stroke="#ffe699"/><path d="M479,46L529,188L641,58Z" fill="#ffd495" stroke="#ffd495"/><path d="M641,58L529,188L670,190Z" fill="#fbe89d" stroke="#fbe89d"/><path d="M641,58L670,190L801,101Z" fill="#f5d88a" stroke="#f5d88a"/><path d="M801,101L670,190L866,208Z" fill="#e9ea96" stroke="#e9ea96"/><path d="M801,101L866,208L1033,49Z" fill="#cfca86" stroke="#cfca86"/><path d="M1033,49L866,208L1008,234Z" fill="#bdd19a" stroke="#bdd19a"/><path d="M1033,49L1008,234L1089,64Z" fill="#a8ac94" stroke="#a8ac94"/><path d="M1089,64L1008,234L1124,214Z" fill="#9fbea8" stroke="#9fbea8"/><path d="M1089,64L1124,214L1247,67Z" fill="#8994a0" stroke="#8994a0"/><path d="M1247,67L1124,214L1250,224Z" fill="#80a1b6" stroke="#80a1b6"/><path d="M1247,67L1250,224L1471,47Z" fill="#8070b2" stroke="#8070b2"/><path d="M1471,47L1250,224L1479,266Z" fill="#807dce" stroke="#807dce"/><path d="M-73,205L-123,327L32,278Z" fill="#e49392" stroke="#e49392"/><path d="M32,278L-123,327L-57,526Z" fill="#e59483" stroke="#e59483"/><path d="M32,278L-57,526L119,407Z" fill="#e8a683" stroke="#e8a683"/><path d="M32,278L119,407L184,190Z" fill="#f6b79c" stroke="#f6b79c"/><path d="M184,190L119,407L243,353Z" fill="#fec698" stroke="#fec698"/><path d="M184,190L243,353L319,241Z" fill="#fed59e" stroke="#fed59e"/><path d="M319,241L243,353L408,391Z" fill="#ffe6a9" stroke="#ffe6a9"/><path d="M319,241L408,391L529,188Z" fill="#fff4ba" stroke="#fff4ba"/><path d="M529,188L408,391L504,383Z" fill="#fff9c1" stroke="#fff9c1"/><path d="M529,188L504,383L683,339Z" fill="#feffcc" stroke="#feffcc"/><path d="M529,188L683,339L670,190Z" fill="#fafdb9" stroke="#fafdb9"/><path d="M670,190L683,339L843,320Z" fill="#f3fabc" stroke="#f3fabc"/><path d="M670,190L843,320L866,208Z" fill="#e6f5ad" stroke="#e6f5ad"/><path d="M866,208L843,320L1008,234Z" fill="#ceebb1" stroke="#ceebb1"/><path d="M1008,234L843,320L950,392Z" fill="#c7e6b8" stroke="#c7e6b8"/><path d="M1008,234L950,392L1101,336Z" fill="#afd4c1" stroke="#afd4c1"/><path d="M1008,234L1101,336L1124,214Z" fill="#9ec8c5" stroke="#9ec8c5"/><path d="M1124,214L1101,336L1250,224Z" fill="#88b7cd" stroke="#88b7cd"/><path d="M1250,224L1101,336L1298,343Z" fill="#80abdc" stroke="#80abdc"/><path d="M1250,224L1298,343L1479,266Z" fill="#8090e8" stroke="#8090e8"/><path d="M1479,266L1298,343L1478,406Z" fill="#8080e6" stroke="#8080e6"/><path d="M-123,327L-75,693L-57,526Z" fill="#a97d85" stroke="#a97d85"/><path d="M119,407L-57,526L97,566Z" fill="#c1a285" stroke="#c1a285"/><path d="M119,407L97,566L188,576Z" fill="#c0ac8b" stroke="#c0ac8b"/><path d="M119,407L188,576L243,353Z" fill="#e8c686" stroke="#e8c686"/><path d="M243,353L188,576L385,509Z" fill="#dcda91" stroke="#dcda91"/><path d="M243,353L385,509L408,391Z" fill="#f3eb9c" stroke="#f3eb9c"/><path d="M408,391L385,509L504,383Z" fill="#f0f5a9" stroke="#f0f5a9"/><path d="M504,383L385,509L472,566Z" fill="#d9f6ab" stroke="#d9f6ab"/><path d="M504,383L472,566L732,513Z" fill="#d7fdb7" stroke="#d7fdb7"/><path d="M504,383L732,513L683,339Z" fill="#f0fdb0" stroke="#f0fdb0"/><path d="M683,339L732,513L857,479Z" fill="#d8f7a5" stroke="#d8f7a5"/><path d="M683,339L857,479L843,320Z" fill="#e6f5a8" stroke="#e6f5a8"/><path d="M843,320L857,479L950,392Z" fill="#cfeda5" stroke="#cfeda5"/><path d="M950,392L857,479L955,526Z" fill="#ade8a3" stroke="#ade8a3"/><path d="M950,392L955,526L1163,499Z" fill="#8ed3af" stroke="#8ed3af"/><path d="M950,392L1163,499L1101,336Z" fill="#98c9b6" stroke="#98c9b6"/><path d="M1101,336L1163,499L1298,343Z" fill="#7eb1c3" stroke="#7eb1c3"/><path d="M1298,343L1163,499L1295,516Z" fill="#67a3c9" stroke="#67a3c9"/><path d="M1298,343L1295,516L1412,519Z" fill="#6591d2" stroke="#6591d2"/><path d="M1298,343L1412,519L1478,406Z" fill="#7285d9" stroke="#7285d9"/><path d="M1478,406L1412,519L1473,728Z" fill="#3160e9" stroke="#3160e9"/><path d="M-57,526L-75,693L18,712Z" fill="#674ba6" stroke="#674ba6"/><path d="M-57,526L18,712L97,566Z" fill="#7d6b9e" stroke="#7d6b9e"/><path d="M97,566L18,712L217,657Z" fill="#776aaa" stroke="#776aaa"/><path d="M97,566L217,657L188,576Z" fill="#8e8ba1" stroke="#8e8ba1"/><path d="M188,576L217,657L385,509Z" fill="#9daaa8" stroke="#9daaa8"/><path d="M385,509L217,657L393,664Z" fill="#8aacb9" stroke="#8aacb9"/><path d="M385,509L393,664L472,566Z" fill="#9ec6bd" stroke="#9ec6bd"/><path d="M472,566L393,664L530,624Z" fill="#86b8ce" stroke="#86b8ce"/><path d="M472,566L530,624L732,513Z" fill="#a4d6ca" stroke="#a4d6ca"/><path d="M732,513L530,624L696,719Z" fill="#7ebccf" stroke="#7ebccf"/><path d="M732,513L696,719L869,705Z" fill="#6caacb" stroke="#6caacb"/><path d="M732,513L869,705L857,479Z" fill="#88ccb8" stroke="#88ccb8"/><path d="M857,479L869,705L955,526Z" fill="#76c3b8" stroke="#76c3b8"/><path d="M955,526L869,705L966,732Z" fill="#4895cc" stroke="#4895cc"/><path d="M955,526L966,732L1070,707Z" fill="#3587d3" stroke="#3587d3"/><path d="M955,526L1070,707L1163,499Z" fill="#439fca" stroke="#439fca"/><path d="M1163,499L1070,707L1314,686Z" fill="#016ce5" stroke="#016ce5"/><path d="M1163,499L1314,686L1295,516Z" fill="#277ade" stroke="#277ade"/><path d="M1295,516L1314,686L1412,519Z" fill="#2266e9" stroke="#2266e9"/><path d="M1412,519L1314,686L1473,728Z" fill="#0038ff" stroke="#0038ff"/><path d="M-75,693L-27,867L18,712Z" fill="#6819a6" stroke="#6819a6"/><path d="M18,712L-27,867L132,870Z" fill="#6f28a8" stroke="#6f28a8"/><path d="M18,712L132,870L202,821Z" fill="#7739aa" stroke="#7739aa"/><path d="M18,712L202,821L217,657Z" fill="#7a49ab" stroke="#7a49ab"/><path d="M217,657L202,821L330,834Z" fill="#7f56b5" stroke="#7f56b5"/><path d="M217,657L330,834L393,664Z" fill="#7f74be" stroke="#7f74be"/><path d="M393,664L330,834L473,790Z" fill="#7f73ca" stroke="#7f73ca"/><path d="M393,664L473,790L530,624Z" fill="#8095d3" stroke="#8095d3"/><path d="M530,624L473,790L622,817Z" fill="#8083de" stroke="#8083de"/><path d="M530,624L622,817L696,719Z" fill="#7b8dd8" stroke="#7b8dd8"/><path d="M696,719L622,817L860,858Z" fill="#747bcc" stroke="#747bcc"/><path d="M696,719L860,858L869,705Z" fill="#6374cb" stroke="#6374cb"/><path d="M869,705L860,858L966,732Z" fill="#506cca" stroke="#506cca"/><path d="M966,732L860,858L1028,774Z" fill="#4263ce" stroke="#4263ce"/><path d="M966,732L1028,774L1070,707Z" fill="#2f5bd6" stroke="#2f5bd6"/><path d="M1070,707L1028,774L1155,786Z" fill="#1d47dd" stroke="#1d47dd"/><path d="M1070,707L1155,786L1314,686Z" fill="#023fe8" stroke="#023fe8"/><path d="M1314,686L1155,786L1231,849Z" fill="#0028ee" stroke="#0028ee"/><path d="M1314,686L1231,849L1389,785Z" fill="#0017f6" stroke="#0017f6"/><path d="M1314,686L1389,785L1473,728Z" fill="#000fff" stroke="#000fff"/><path d="M132,870L860,858L330,834Z" fill="#7f77d0" stroke="#7f77d0"/><path d="M132,870L330,834L202,821Z" fill="#7e4fb2" stroke="#7e4fb2"/><path d="M330,834L860,858L622,817Z" fill="#7c7ed9" stroke="#7c7ed9"/><path d="M330,834L622,817L473,790Z" fill="#807ad5" stroke="#807ad5"/><path d="M860,858L1231,849L1028,774Z" fill="#2950d8" stroke="#2950d8"/><path d="M1028,774L1231,849L1155,786Z" fill="#0e3ce3" stroke="#0e3ce3"/></g></svg>