<svg xmlns:dc="http://purl.org/dc/elements/1.1/" xmlns:cc="http://creativecommons.org/ns#" xmlns:rdf="http://www.w3.org/1999/02/22-rdf-syntax-ns#" xmlns:svg="http://www.w3.org/2000/svg" xmlns="http://www.w3.org/2000/svg" xmlns:inkscape="http://www.inkscape.org/namespaces/inkscape" version="1.1" width="720" height="916.2" id="svg2" xml:space="preserve"><metadata id="metadata8"><rdf:RDF><cc:Work rdf:about=""><dc:format>image/svg+xml</dc:format><dc:type rdf:resource="http://purl.org/dc/dcmitype/StillImage"/></cc:Work></rdf:RDF></metadata><defs id="defs6"/><g transform="matrix(1.25,0,0,-1.25,0,916.25)" id="g10"><g id="g12"><path d="M285 509.4 151.1 462.2 172.2 286.8 285.1 224.7 398.6 287.6 419.8 463.1 285 509.4 z" inkscape:connector-curvature="0" id="path14" style="fill:#b3b3b3;fill-opacity:1;fill-rule:nonzero;stroke:none"/><path d="m406.4 452.9 -121.7 41.5 0 -254.9 102 56.5 19.7 156.9 z" inkscape:connector-curvature="0" id="path16" style="fill:#af2b2d;fill-opacity:1;fill-rule:nonzero;stroke:none"/><path d="m166.1 452.2 18.1 -156.9 100.5 -55.7 0 254.9 -118.6 -42.3 z" inkscape:connector-curvature="0" id="path18" style="fill:#df2e31;fill-opacity:1;fill-rule:nonzero;stroke:none"/><path d="m312.9 367.7 -28 58.5 -24.7 -58.5 52.6 0 zm10.7 -24.6 -74.2 0 -16.6 -41.5 -30.9 -0.6 82.8 184.2 85.7 -184.2 -28.6 0 -18.2 42.1 z" inkscape:connector-curvature="0" id="path20" style="fill:#f2f2f2;fill-opacity:1;fill-rule:nonzero;stroke:none"/><path d="m284.7 485.2 0.2 -59.1 28 -58.5 -28.1 0 -0.1 -24.5 38.9 -0 18.2 -42.1 29.6 -0.6 -86.6 184.8 z" inkscape:connector-curvature="0" id="path22" style="fill:#b3b3b3;fill-opacity:1;fill-rule:nonzero;stroke:none"/></g></g></svg>
