<?xml version="1.0" encoding="UTF-8"?>
<!DOCTYPE svg PUBLIC "-//W3C//DTD SVG 1.1//EN" "http://www.w3.org/Graphics/SVG/1.1/DTD/svg11.dtd">
<svg version="1.1" xmlns="http://www.w3.org/2000/svg" xmlns:xlink="http://www.w3.org/1999/xlink" x="0" y="0" width="335.875" height="355.875" viewBox="0, 0, 335.875, 355.875">
  <g id="g10" transform="translate(-188.875, -279.5)">
    <path d="M356.25,279.5 L188.875,338.5 L215.25,557.75 L356.375,635.375 L498.25,556.75 L524.75,337.375 L356.25,279.5 z" fill="#B3B3B3" id="path14"/>
    <path d="M508,350.125 L355.875,298.25 L355.875,616.875 L483.375,546.25 L508,350.125 z" fill="#AF2B2D" id="path16"/>
    <path d="M207.625,351 L230.25,547.125 L355.875,616.75 L355.875,298.125 L207.625,351 z" fill="#DF2E31" id="path18"/>
    <path d="M391.125,456.625 L356.125,383.5 L325.25,456.625 L391,456.625 z M404.5,487.375 L311.75,487.375 L291,539.25 L252.375,540 L355.875,309.75 L463,540 L427.25,540 L404.5,487.375 z" fill="#F2F2F2" id="path20"/>
    <path d="M355.875,309.75 L356.125,383.625 L391.125,456.75 L356,456.75 L355.875,487.375 L404.5,487.375 L427.25,540 L464.25,540.75 L356,309.75 z" fill="#B3B3B3" id="path22"/>
  </g>
</svg>
