<svg width="1280" height="651" xmlns="http://www.w3.org/2000/svg"><g><path d="M-84,-73L-107,309L-51,119Z" fill="#f8bb66" stroke="#f8bb66"/><path d="M-84,-73L-51,119L51,17Z" fill="#f8b349" stroke="#f8b349"/><path d="M-84,-73L51,17L93,-63Z" fill="#f8af3a" stroke="#f8af3a"/><path d="M-84,-73L93,-63L338,-113Z" fill="#f9b33d" stroke="#f9b33d"/><path d="M93,-63L51,17L216,52Z" fill="#f9bf61" stroke="#f9bf61"/><path d="M93,-63L216,52L177,-71Z" fill="#f9bf5d" stroke="#f9bf5d"/><path d="M93,-63L177,-71L338,-113Z" fill="#fabb50" stroke="#fabb50"/><path d="M177,-71L216,52L338,-113Z" fill="#fac569" stroke="#fac569"/><path d="M338,-113L216,52L347,44Z" fill="#facf84" stroke="#facf84"/><path d="M338,-113L347,44L424,8Z" fill="#fbd48d" stroke="#fbd48d"/><path d="M338,-113L424,8L454,-84Z" fill="#fbd283" stroke="#fbd283"/><path d="M338,-113L454,-84L576,-89Z" fill="#f8cc7a" stroke="#f8cc7a"/><path d="M338,-113L576,-89L706,-119Z" fill="#efc075" stroke="#efc075"/><path d="M454,-84L424,8L576,-89Z" fill="#f5ce88" stroke="#f5ce88"/><path d="M576,-89L424,8L526,116Z" fill="#f2d4a2" stroke="#f2d4a2"/><path d="M576,-89L526,116L695,43Z" fill="#e8cba1" stroke="#e8cba1"/><path d="M576,-89L695,43L706,-119Z" fill="#e2b97d" stroke="#e2b97d"/><path d="M706,-119L695,43L721,-108Z" fill="#dcb277" stroke="#dcb277"/><path d="M706,-119L721,-108L865,-60Z" fill="#d6a667" stroke="#d6a667"/><path d="M706,-119L865,-60L1022,-76Z" fill="#cb9b64" stroke="#cb9b64"/><path d="M706,-119L1022,-76L1188,-66Z" fill="#bf8e5d" stroke="#bf8e5d"/><path d="M721,-108L695,43L817,43Z" fill="#d8b58b" stroke="#d8b58b"/><path d="M721,-108L817,43L865,-60Z" fill="#d2a97a" stroke="#d2a97a"/><path d="M865,-60L817,43L906,23Z" fill="#cba888" stroke="#cba888"/><path d="M865,-60L906,23L1022,-76Z" fill="#c49974" stroke="#c49974"/><path d="M1022,-76L906,23L993,39Z" fill="#bf997e" stroke="#bf997e"/><path d="M1022,-76L993,39L1181,43Z" fill="#b58f7c" stroke="#b58f7c"/><path d="M1022,-76L1181,43L1188,-66Z" fill="#ae8269" stroke="#ae8269"/><path d="M1188,-66L1181,43L1223,50Z" fill="#a67f76" stroke="#a67f76"/><path d="M1188,-66L1223,50L1265,-47Z" fill="#a37769" stroke="#a37769"/><path d="M1188,-66L1265,-47L1378,-35Z" fill="#9e6d59" stroke="#9e6d59"/><path d="M1265,-47L1223,50L1333,85Z" fill="#9e797a" stroke="#9e797a"/><path d="M1265,-47L1333,85L1378,-35Z" fill="#986e6b" stroke="#986e6b"/><path d="M1378,-35L1333,85L1344,199Z" fill="#95768b" stroke="#95768b"/><path d="M1378,-35L1344,199L1384,315Z" fill="#937faa" stroke="#937faa"/><path d="M1378,-35L1384,315L1415,451Z" fill="#8c7fbf" stroke="#8c7fbf"/><path d="M1378,-35L1415,451L1433,610Z" fill="#7a69b9" stroke="#7a69b9"/><path d="M-51,119L-107,309L-32,193Z" fill="#f8ca8e" stroke="#f8ca8e"/><path d="M-51,119L-32,193L48,122Z" fill="#f8c67f" stroke="#f8c67f"/><path d="M-51,119L48,122L51,17Z" fill="#f8c06d" stroke="#f8c06d"/><path d="M51,17L48,122L216,52Z" fill="#f9c677" stroke="#f9c677"/><path d="M216,52L48,122L148,238Z" fill="#f9d49c" stroke="#f9d49c"/><path d="M216,52L148,238L321,177Z" fill="#fadfb7" stroke="#fadfb7"/><path d="M216,52L321,177L347,44Z" fill="#faddab" stroke="#faddab"/><path d="M347,44L321,177L415,197Z" fill="#fbeacd" stroke="#fbeacd"/><path d="M347,44L415,197L424,8Z" fill="#fbe5bd" stroke="#fbe5bd"/><path d="M424,8L415,197L526,116Z" fill="#f8e8cc" stroke="#f8e8cc"/><path d="M526,116L415,197L494,283Z" fill="#f6f2f1" stroke="#f6f2f1"/><path d="M526,116L494,283L583,221Z" fill="#efedf0" stroke="#efedf0"/><path d="M526,116L583,221L695,43Z" fill="#e8d9cb" stroke="#e8d9cb"/><path d="M695,43L583,221L701,213Z" fill="#e2d7d5" stroke="#e2d7d5"/><path d="M695,43L701,213L824,202Z" fill="#d9ccce" stroke="#d9ccce"/><path d="M695,43L824,202L817,43Z" fill="#d4bfb4" stroke="#d4bfb4"/><path d="M817,43L824,202L937,184Z" fill="#ccbcc2" stroke="#ccbcc2"/><path d="M817,43L937,184L906,23Z" fill="#c9b0a8" stroke="#c9b0a8"/><path d="M906,23L937,184L993,39Z" fill="#c2a8a4" stroke="#c2a8a4"/><path d="M993,39L937,184L1011,141Z" fill="#beaab2" stroke="#beaab2"/><path d="M993,39L1011,141L1181,43Z" fill="#b5999a" stroke="#b5999a"/><path d="M1181,43L1011,141L1182,180Z" fill="#ae98a9" stroke="#ae98a9"/><path d="M1181,43L1182,180L1223,50Z" fill="#a78b98" stroke="#a78b98"/><path d="M1223,50L1182,180L1277,151Z" fill="#a38ca5" stroke="#a38ca5"/><path d="M1223,50L1277,151L1333,85Z" fill="#9e8295" stroke="#9e8295"/><path d="M1333,85L1277,151L1344,199Z" fill="#9984a7" stroke="#9984a7"/><path d="M-32,193L-107,309L75,358Z" fill="#edc198" stroke="#edc198"/><path d="M-32,193L75,358L148,238Z" fill="#f1cfab" stroke="#f1cfab"/><path d="M-32,193L148,238L48,122Z" fill="#f9d29e" stroke="#f9d29e"/><path d="M148,238L75,358L170,311Z" fill="#ebcdb7" stroke="#ebcdb7"/><path d="M148,238L170,311L308,324Z" fill="#edd7c8" stroke="#edd7c8"/><path d="M148,238L308,324L321,177Z" fill="#f5e5d6" stroke="#f5e5d6"/><path d="M321,177L308,324L415,197Z" fill="#f8f1e9" stroke="#f8f1e9"/><path d="M415,197L308,324L441,312Z" fill="#f1ebf0" stroke="#f1ebf0"/><path d="M415,197L441,312L494,283Z" fill="#f1eff7" stroke="#f1eff7"/><path d="M583,221L494,283L574,426Z" fill="#dedaef" stroke="#dedaef"/><path d="M583,221L574,426L693,327Z" fill="#d4ceea" stroke="#d4ceea"/><path d="M583,221L693,327L701,213Z" fill="#dcd7eb" stroke="#dcd7eb"/><path d="M701,213L693,327L824,202Z" fill="#d4cfe7" stroke="#d4cfe7"/><path d="M824,202L693,327L840,349Z" fill="#c7c0e1" stroke="#c7c0e1"/><path d="M824,202L840,349L893,267Z" fill="#c3bcde" stroke="#c3bcde"/><path d="M824,202L893,267L937,184Z" fill="#c9c3df" stroke="#c9c3df"/><path d="M937,184L893,267L1036,255Z" fill="#beb7da" stroke="#beb7da"/><path d="M937,184L1036,255L1011,141Z" fill="#bdb2cf" stroke="#bdb2cf"/><path d="M1011,141L1036,255L1182,180Z" fill="#b4a8c9" stroke="#b4a8c9"/><path d="M1182,180L1036,255L1092,331Z" fill="#aaa0d0" stroke="#aaa0d0"/><path d="M1182,180L1092,331L1256,289Z" fill="#a095cb" stroke="#a095cb"/><path d="M1182,180L1256,289L1277,151Z" fill="#a296c5" stroke="#a296c5"/><path d="M1277,151L1256,289L1344,199Z" fill="#9c90c5" stroke="#9c90c5"/><path d="M1344,199L1256,289L1384,315Z" fill="#8f82c2" stroke="#8f82c2"/><path d="M-107,309L-107,428L75,358Z" fill="#dfaf8e" stroke="#dfaf8e"/><path d="M75,358L-107,428L94,420Z" fill="#d9af9b" stroke="#d9af9b"/><path d="M75,358L94,420L170,311Z" fill="#e1bfb0" stroke="#e1bfb0"/><path d="M170,311L94,420L190,456Z" fill="#dbbdb7" stroke="#dbbdb7"/><path d="M170,311L190,456L304,371Z" fill="#dec7c7" stroke="#dec7c7"/><path d="M170,311L304,371L308,324Z" fill="#e6d3d2" stroke="#e6d3d2"/><path d="M308,324L304,371L441,312Z" fill="#e7dce5" stroke="#e7dce5"/><path d="M441,312L304,371L459,451Z" fill="#e0d9ee" stroke="#e0d9ee"/><path d="M441,312L459,451L574,426Z" fill="#d6d0ee" stroke="#d6d0ee"/><path d="M441,312L574,426L494,283Z" fill="#ded9f0" stroke="#ded9f0"/><path d="M693,327L574,426L664,416Z" fill="#c6bfe5" stroke="#c6bfe5"/><path d="M693,327L664,416L788,455Z" fill="#bdb4e1" stroke="#bdb4e1"/><path d="M693,327L788,455L840,349Z" fill="#bab1de" stroke="#bab1de"/><path d="M840,349L788,455L876,427Z" fill="#aea3d8" stroke="#aea3d8"/><path d="M840,349L876,427L893,267Z" fill="#b4abda" stroke="#b4abda"/><path d="M893,267L876,427L1056,363Z" fill="#aca1d5" stroke="#aca1d5"/><path d="M893,267L1056,363L1036,255Z" fill="#b0a6d5" stroke="#b0a6d5"/><path d="M1036,255L1056,363L1092,331Z" fill="#a59ad0" stroke="#a59ad0"/><path d="M1092,331L1056,363L1139,474Z" fill="#9587ca" stroke="#9587ca"/><path d="M1092,331L1139,474L1238,425Z" fill="#8a7bc5" stroke="#8a7bc5"/><path d="M1092,331L1238,425L1256,289Z" fill="#9183c6" stroke="#9183c6"/><path d="M1256,289L1238,425L1384,315Z" fill="#8778c0" stroke="#8778c0"/><path d="M1384,315L1238,425L1415,451Z" fill="#7867ba" stroke="#7867ba"/><path d="M-107,428L-106,621L-71,598Z" fill="#c0867a" stroke="#c0867a"/><path d="M-107,428L-71,598L83,535Z" fill="#c59289" stroke="#c59289"/><path d="M-107,428L83,535L94,420Z" fill="#cfa398" stroke="#cfa398"/><path d="M94,420L83,535L190,456Z" fill="#cfabad" stroke="#cfabad"/><path d="M190,456L83,535L192,592Z" fill="#c5a3b1" stroke="#c5a3b1"/><path d="M190,456L192,592L260,571Z" fill="#c3a6bd" stroke="#c3a6bd"/><path d="M190,456L260,571L368,486Z" fill="#cab3cc" stroke="#cab3cc"/><path d="M190,456L368,486L304,371Z" fill="#d5c2d2" stroke="#d5c2d2"/><path d="M304,371L368,486L459,451Z" fill="#d6cbe6" stroke="#d6cbe6"/><path d="M459,451L368,486L486,598Z" fill="#c9bfec" stroke="#c9bfec"/><path d="M459,451L486,598L574,426Z" fill="#c4bbe8" stroke="#c4bbe8"/><path d="M574,426L486,598L610,590Z" fill="#b7ace3" stroke="#b7ace3"/><path d="M574,426L610,590L664,416Z" fill="#bab0e3" stroke="#bab0e3"/><path d="M664,416L610,590L788,455Z" fill="#b1a6de" stroke="#b1a6de"/><path d="M788,455L610,590L830,571Z" fill="#a295d7" stroke="#a295d7"/><path d="M788,455L830,571L876,427Z" fill="#a294d5" stroke="#a294d5"/><path d="M876,427L830,571L904,598Z" fill="#9586d0" stroke="#9586d0"/><path d="M876,427L904,598L1010,494Z" fill="#9384ce" stroke="#9384ce"/><path d="M876,427L1010,494L1056,363Z" fill="#9b8dcf" stroke="#9b8dcf"/><path d="M1056,363L1010,494L1139,474Z" fill="#8f7fc9" stroke="#8f7fc9"/><path d="M1139,474L1010,494L1146,496Z" fill="#8473c5" stroke="#8473c5"/><path d="M1139,474L1146,496L1238,425Z" fill="#7f6ec1" stroke="#7f6ec1"/><path d="M1238,425L1146,496L1295,594Z" fill="#7360bc" stroke="#7360bc"/><path d="M1238,425L1295,594L1407,482Z" fill="#6a56b7" stroke="#6a56b7"/><path d="M1238,425L1407,482L1415,451Z" fill="#6e5bb7" stroke="#6e5bb7"/><path d="M1415,451L1407,482L1433,610Z" fill="#5c46b0" stroke="#5c46b0"/><path d="M-71,598L-106,621L-50,722Z" fill="#af757a" stroke="#af757a"/><path d="M-71,598L-50,722L25,644Z" fill="#af7883" stroke="#af7883"/><path d="M-71,598L25,644L83,535Z" fill="#b9888f" stroke="#b9888f"/><path d="M83,535L25,644L192,592Z" fill="#ba91a2" stroke="#ba91a2"/><path d="M192,592L25,644L190,678Z" fill="#b28ba7" stroke="#b28ba7"/><path d="M192,592L190,678L260,571Z" fill="#b798ba" stroke="#b798ba"/><path d="M260,571L190,678L353,660Z" fill="#b499c4" stroke="#b499c4"/><path d="M260,571L353,660L368,486Z" fill="#bfabd4" stroke="#bfabd4"/><path d="M368,486L353,660L486,598Z" fill="#beb1e4" stroke="#beb1e4"/><path d="M486,598L353,660L447,689Z" fill="#b3a6e5" stroke="#b3a6e5"/><path d="M486,598L447,689L497,693Z" fill="#ab9de2" stroke="#ab9de2"/><path d="M486,598L497,693L605,681Z" fill="#a697de" stroke="#a697de"/><path d="M486,598L605,681L610,590Z" fill="#a799de" stroke="#a799de"/><path d="M610,590L605,681L814,632Z" fill="#9a8ad7" stroke="#9a8ad7"/><path d="M610,590L814,632L830,571Z" fill="#9788d4" stroke="#9788d4"/><path d="M830,571L814,632L884,643Z" fill="#8a79ce" stroke="#8a79ce"/><path d="M830,571L884,643L904,598Z" fill="#8978cd" stroke="#8978cd"/><path d="M904,598L884,643L1072,645Z" fill="#7c69c6" stroke="#7c69c6"/><path d="M904,598L1072,645L1010,494Z" fill="#806ec6" stroke="#806ec6"/><path d="M1010,494L1072,645L1146,496Z" fill="#7d6ac3" stroke="#7d6ac3"/><path d="M1146,496L1072,645L1113,679Z" fill="#6e5abe" stroke="#6e5abe"/><path d="M1146,496L1113,679L1295,594Z" fill="#6954ba" stroke="#6954ba"/><path d="M1295,594L1113,679L1295,657Z" fill="#5b43b5" stroke="#5b43b5"/><path d="M1295,594L1295,657L1433,610Z" fill="#533baf" stroke="#533baf"/><path d="M1295,594L1433,610L1407,482Z" fill="#5842b0" stroke="#5842b0"/><path d="M25,644L-50,722L71,813Z" fill="#a36e89" stroke="#a36e89"/><path d="M25,644L71,813L190,678Z" fill="#a6799b" stroke="#a6799b"/><path d="M190,678L71,813L210,750Z" fill="#a078a6" stroke="#a078a6"/><path d="M190,678L210,750L353,660Z" fill="#aa8bbd" stroke="#aa8bbd"/><path d="M353,660L210,750L395,728Z" fill="#a78fcb" stroke="#a78fcb"/><path d="M353,660L395,728L447,689Z" fill="#ab9add" stroke="#ab9add"/><path d="M447,689L395,728L492,784Z" fill="#a293e0" stroke="#a293e0"/><path d="M447,689L492,784L497,693Z" fill="#a191df" stroke="#a191df"/><path d="M497,693L492,784L605,681Z" fill="#9b8bdb" stroke="#9b8bdb"/><path d="M605,681L492,784L651,769Z" fill="#9180d7" stroke="#9180d7"/><path d="M605,681L651,769L814,632Z" fill="#8e7cd3" stroke="#8e7cd3"/><path d="M814,632L651,769L742,813Z" fill="#826ece" stroke="#826ece"/><path d="M814,632L742,813L863,746Z" fill="#7b67ca" stroke="#7b67ca"/><path d="M814,632L863,746L884,643Z" fill="#7f6cca" stroke="#7f6cca"/><path d="M884,643L863,746L1024,766Z" fill="#705bc3" stroke="#705bc3"/><path d="M884,643L1024,766L1072,645Z" fill="#6e59c1" stroke="#6e59c1"/><path d="M1072,645L1024,766L1113,679Z" fill="#644dbc" stroke="#644dbc"/><path d="M1113,679L1024,766L1107,785Z" fill="#5b42b9" stroke="#5b42b9"/><path d="M1113,679L1107,785L1208,785Z" fill="#533ab5" stroke="#533ab5"/><path d="M1113,679L1208,785L1295,657Z" fill="#533ab3" stroke="#533ab3"/><path d="M1295,657L1208,785L1337,781Z" fill="#452aad" stroke="#452aad"/><path d="M1295,657L1337,781L1433,610Z" fill="#462dab" stroke="#462dab"/><path d="M71,813L348,840L210,750Z" fill="#9872af" stroke="#9872af"/><path d="M210,750L348,840L395,728Z" fill="#9d83c8" stroke="#9d83c8"/><path d="M348,840L1337,781L742,813Z" fill="#6d56c6" stroke="#6d56c6"/><path d="M348,840L742,813L492,784Z" fill="#8c79d7" stroke="#8c79d7"/><path d="M348,840L492,784L395,728Z" fill="#9c89dc" stroke="#9c89dc"/><path d="M492,784L742,813L651,769Z" fill="#8571d2" stroke="#8571d2"/><path d="M742,813L1337,781L1208,785Z" fill="#5137b5" stroke="#5137b5"/><path d="M742,813L1208,785L1107,785Z" fill="#5940ba" stroke="#5940ba"/><path d="M742,813L1107,785L1024,766Z" fill="#6149be" stroke="#6149be"/><path d="M742,813L1024,766L863,746Z" fill="#6c55c3" stroke="#6c55c3"/></g></svg>