<svg width="1280" height="651" xmlns="http://www.w3.org/2000/svg"><g><path d="M-3,-37L-91,59L49,15Z" fill="#ffefe5" stroke="#ffefe5"/><path d="M-3,-37L49,15L74,-55Z" fill="#ffece4" stroke="#ffece4"/><path d="M74,-55L49,15L175,98Z" fill="#ffe3d6" stroke="#ffe3d6"/><path d="M74,-55L175,98L188,-76Z" fill="#fee2d8" stroke="#fee2d8"/><path d="M188,-76L175,98L299,29Z" fill="#fed9c9" stroke="#fed9c9"/><path d="M188,-76L299,29L249,-77Z" fill="#fed9cd" stroke="#fed9cd"/><path d="M188,-76L249,-77L451,-110Z" fill="#fed5c7" stroke="#fed5c7"/><path d="M249,-77L299,29L451,-110Z" fill="#fed1c3" stroke="#fed1c3"/><path d="M451,-110L299,29L364,83Z" fill="#fecebc" stroke="#fecebc"/><path d="M451,-110L364,83L582,8Z" fill="#fcc4b4" stroke="#fcc4b4"/><path d="M451,-110L582,8L552,-98Z" fill="#fabdb0" stroke="#fabdb0"/><path d="M451,-110L552,-98L1029,-107Z" fill="#f5aba2" stroke="#f5aba2"/><path d="M552,-98L582,8L683,-40Z" fill="#f7b4a9" stroke="#f7b4a9"/><path d="M552,-98L683,-40L798,-80Z" fill="#f5aba2" stroke="#f5aba2"/><path d="M552,-98L798,-80L1029,-107Z" fill="#f19d98" stroke="#f19d98"/><path d="M683,-40L582,8L641,12Z" fill="#f6b0a6" stroke="#f6b0a6"/><path d="M683,-40L641,12L735,20Z" fill="#f5aaa0" stroke="#f5aaa0"/><path d="M683,-40L735,20L798,-80Z" fill="#f3a49d" stroke="#f3a49d"/><path d="M798,-80L735,20L861,113Z" fill="#f19991" stroke="#f19991"/><path d="M798,-80L861,113L941,-18Z" fill="#ee948e" stroke="#ee948e"/><path d="M798,-80L941,-18L1029,-107Z" fill="#ec8e8d" stroke="#ec8e8d"/><path d="M941,-18L861,113L902,137Z" fill="#ed8277" stroke="#ed8277"/><path d="M941,-18L902,137L1043,116Z" fill="#eb7b72" stroke="#eb7b72"/><path d="M941,-18L1043,116L1120,26Z" fill="#e87975" stroke="#e87975"/><path d="M941,-18L1120,26L1029,-107Z" fill="#e98183" stroke="#e98183"/><path d="M1029,-107L1120,26L1140,-96Z" fill="#e68080" stroke="#e68080"/><path d="M1140,-96L1120,26L1220,-64Z" fill="#e48080" stroke="#e48080"/><path d="M1140,-96L1220,-64L1385,-35Z" fill="#e18080" stroke="#e18080"/><path d="M1220,-64L1120,26L1214,102Z" fill="#e37c78" stroke="#e37c78"/><path d="M1220,-64L1214,102L1385,-35Z" fill="#e0807d" stroke="#e0807d"/><path d="M1385,-35L1214,102L1421,111Z" fill="#de756e" stroke="#de756e"/><path d="M-91,59L-106,257L-12,225Z" fill="#ffd5bf" stroke="#ffd5bf"/><path d="M-91,59L-12,225L34,201Z" fill="#ffd4be" stroke="#ffd4be"/><path d="M-91,59L34,201L49,15Z" fill="#ffdfcf" stroke="#ffdfcf"/><path d="M49,15L34,201L175,98Z" fill="#ffd4c1" stroke="#ffd4c1"/><path d="M175,98L34,201L174,152Z" fill="#fec8b0" stroke="#fec8b0"/><path d="M175,98L174,152L267,131Z" fill="#fec5ae" stroke="#fec5ae"/><path d="M175,98L267,131L299,29Z" fill="#fec9b4" stroke="#fec9b4"/><path d="M299,29L267,131L364,83Z" fill="#fec4ae" stroke="#fec4ae"/><path d="M364,83L267,131L422,238Z" fill="#feb497" stroke="#feb497"/><path d="M364,83L422,238L482,167Z" fill="#feab8c" stroke="#feab8c"/><path d="M364,83L482,167L582,8Z" fill="#fcb39b" stroke="#fcb39b"/><path d="M582,8L482,167L711,138Z" fill="#f8a28c" stroke="#f8a28c"/><path d="M582,8L711,138L641,12Z" fill="#f6a595" stroke="#f6a595"/><path d="M641,12L711,138L735,20Z" fill="#f49e8f" stroke="#f49e8f"/><path d="M735,20L711,138L737,120Z" fill="#f39483" stroke="#f39483"/><path d="M735,20L737,120L861,113Z" fill="#f19081" stroke="#f19081"/><path d="M861,113L737,120L827,275Z" fill="#f07c68" stroke="#f07c68"/><path d="M861,113L827,275L902,137Z" fill="#ee7561" stroke="#ee7561"/><path d="M1043,116L902,137L1052,241Z" fill="#ea6758" stroke="#ea6758"/><path d="M1043,116L1052,241L1067,147Z" fill="#e86052" stroke="#e86052"/><path d="M1043,116L1067,147L1120,26Z" fill="#e76e64" stroke="#e76e64"/><path d="M1120,26L1067,147L1203,143Z" fill="#e56c62" stroke="#e56c62"/><path d="M1120,26L1203,143L1214,102Z" fill="#e36f66" stroke="#e36f66"/><path d="M1214,102L1203,143L1324,186Z" fill="#e16558" stroke="#e16558"/><path d="M1214,102L1324,186L1421,111Z" fill="#de675a" stroke="#de675a"/><path d="M1421,111L1324,186L1417,260Z" fill="#dc5d4c" stroke="#dc5d4c"/><path d="M1421,111L1417,260L1420,773Z" fill="#db2922" stroke="#db2922"/><path d="M-12,225L-106,257L-74,362Z" fill="#ffbba7" stroke="#ffbba7"/><path d="M-12,225L-74,362L62,255Z" fill="#ffb6a1" stroke="#ffb6a1"/><path d="M-12,225L62,255L34,201Z" fill="#ffc2a8" stroke="#ffc2a8"/><path d="M34,201L62,255L174,152Z" fill="#ffc2a7" stroke="#ffc2a7"/><path d="M174,152L62,255L225,315Z" fill="#feb397" stroke="#feb397"/><path d="M174,152L225,315L267,131Z" fill="#feb699" stroke="#feb699"/><path d="M267,131L225,315L358,330Z" fill="#fea285" stroke="#fea285"/><path d="M267,131L358,330L422,238Z" fill="#fea382" stroke="#fea382"/><path d="M422,238L358,330L422,248Z" fill="#fe9375" stroke="#fe9375"/><path d="M422,238L422,248L482,167Z" fill="#fd9e7c" stroke="#fd9e7c"/><path d="M482,167L422,248L583,265Z" fill="#fb9675" stroke="#fb9675"/><path d="M482,167L583,265L711,138Z" fill="#f89276" stroke="#f89276"/><path d="M711,138L583,265L714,241Z" fill="#f58468" stroke="#f58468"/><path d="M711,138L714,241L737,120Z" fill="#f38771" stroke="#f38771"/><path d="M737,120L714,241L827,275Z" fill="#f27a61" stroke="#f27a61"/><path d="M902,137L827,275L1052,241Z" fill="#ec6551" stroke="#ec6551"/><path d="M1067,147L1052,241L1116,192Z" fill="#e75c4a" stroke="#e75c4a"/><path d="M1067,147L1116,192L1203,143Z" fill="#e56253" stroke="#e56253"/><path d="M1116,192L1052,241L1162,271Z" fill="#e65241" stroke="#e65241"/><path d="M1116,192L1162,271L1203,143Z" fill="#e45a48" stroke="#e45a48"/><path d="M1203,143L1162,271L1274,248Z" fill="#e25643" stroke="#e25643"/><path d="M1203,143L1274,248L1324,186Z" fill="#e05c4b" stroke="#e05c4b"/><path d="M1324,186L1274,248L1417,260Z" fill="#de5341" stroke="#de5341"/><path d="M-106,257L-111,776L-74,362Z" fill="#ff8b84" stroke="#ff8b84"/><path d="M62,255L-74,362L115,459Z" fill="#ff9d8c" stroke="#ff9d8c"/><path d="M62,255L115,459L168,394Z" fill="#fe9280" stroke="#fe9280"/><path d="M62,255L168,394L225,315Z" fill="#fe9c86" stroke="#fe9c86"/><path d="M225,315L168,394L351,361Z" fill="#fe8a74" stroke="#fe8a74"/><path d="M225,315L351,361L358,330Z" fill="#fe8a71" stroke="#fe8a71"/><path d="M358,330L351,361L369,411Z" fill="#fe7c65" stroke="#fe7c65"/><path d="M358,330L369,411L543,408Z" fill="#fe725b" stroke="#fe725b"/><path d="M358,330L543,408L422,248Z" fill="#fd8064" stroke="#fd8064"/><path d="M422,248L543,408L583,265Z" fill="#fb7d62" stroke="#fb7d62"/><path d="M583,265L543,408L701,419Z" fill="#f7624e" stroke="#f7624e"/><path d="M583,265L701,419L714,241Z" fill="#f56a55" stroke="#f56a55"/><path d="M714,241L701,419L742,408Z" fill="#f35746" stroke="#f35746"/><path d="M714,241L742,408L827,275Z" fill="#f25f4c" stroke="#f25f4c"/><path d="M827,275L742,408L842,326Z" fill="#f05243" stroke="#f05243"/><path d="M827,275L842,326L1052,241Z" fill="#ed5545" stroke="#ed5545"/><path d="M842,326L742,408L901,463Z" fill="#f03e33" stroke="#f03e33"/><path d="M842,326L901,463L986,377Z" fill="#ed372e" stroke="#ed372e"/><path d="M842,326L986,377L1052,241Z" fill="#eb4639" stroke="#eb4639"/><path d="M1052,241L986,377L1094,365Z" fill="#e8382f" stroke="#e8382f"/><path d="M1052,241L1094,365L1162,271Z" fill="#e64234" stroke="#e64234"/><path d="M1162,271L1094,365L1262,431Z" fill="#e43127" stroke="#e43127"/><path d="M1162,271L1262,431L1274,248Z" fill="#e13b2f" stroke="#e13b2f"/><path d="M1274,248L1262,431L1328,392Z" fill="#df3027" stroke="#df3027"/><path d="M1274,248L1328,392L1417,260Z" fill="#de4033" stroke="#de4033"/><path d="M1417,260L1328,392L1403,645Z" fill="#dc1b17" stroke="#dc1b17"/><path d="M1417,260L1403,645L1420,773Z" fill="#db0000" stroke="#db0000"/><path d="M-74,362L-111,776L-48,645Z" fill="#ff7772" stroke="#ff7772"/><path d="M-74,362L-48,645L-13,539Z" fill="#ff7874" stroke="#ff7874"/><path d="M-74,362L-13,539L115,459Z" fill="#ff847b" stroke="#ff847b"/><path d="M115,459L-13,539L105,497Z" fill="#ff726a" stroke="#ff726a"/><path d="M115,459L105,497L215,576Z" fill="#fe685f" stroke="#fe685f"/><path d="M115,459L215,576L264,545Z" fill="#fe5f56" stroke="#fe5f56"/><path d="M115,459L264,545L168,394Z" fill="#fe7165" stroke="#fe7165"/><path d="M168,394L264,545L369,411Z" fill="#fe6e5e" stroke="#fe6e5e"/><path d="M168,394L369,411L351,361Z" fill="#fe7c68" stroke="#fe7c68"/><path d="M369,411L264,545L361,600Z" fill="#fe5548" stroke="#fe5548"/><path d="M369,411L361,600L470,539Z" fill="#fe4f41" stroke="#fe4f41"/><path d="M369,411L470,539L543,408Z" fill="#fd5b49" stroke="#fd5b49"/><path d="M543,408L470,539L577,580Z" fill="#fa4337" stroke="#fa4337"/><path d="M543,408L577,580L701,419Z" fill="#f74438" stroke="#f74438"/><path d="M701,419L577,580L682,572Z" fill="#f63029" stroke="#f63029"/><path d="M701,419L682,572L750,523Z" fill="#f42f27" stroke="#f42f27"/><path d="M701,419L750,523L742,408Z" fill="#f33b31" stroke="#f33b31"/><path d="M742,408L750,523L901,463Z" fill="#f12f28" stroke="#f12f28"/><path d="M901,463L750,523L933,485Z" fill="#ee211d" stroke="#ee211d"/><path d="M901,463L933,485L986,377Z" fill="#ec2521" stroke="#ec2521"/><path d="M986,377L933,485L995,493Z" fill="#eb1e1c" stroke="#eb1e1c"/><path d="M986,377L995,493L1094,365Z" fill="#e9231f" stroke="#e9231f"/><path d="M1094,365L995,493L1141,507Z" fill="#e71512" stroke="#e71512"/><path d="M1094,365L1141,507L1262,431Z" fill="#e41b17" stroke="#e41b17"/><path d="M1262,431L1141,507L1283,549Z" fill="#e20a0a" stroke="#e20a0a"/><path d="M1262,431L1283,549L1322,516Z" fill="#df0909" stroke="#df0909"/><path d="M1262,431L1322,516L1328,392Z" fill="#df1714" stroke="#df1714"/><path d="M1328,392L1322,516L1403,645Z" fill="#dd0305" stroke="#dd0305"/><path d="M-13,539L-48,645L62,693Z" fill="#ff7069" stroke="#ff7069"/><path d="M-13,539L62,693L142,617Z" fill="#ff6a62" stroke="#ff6a62"/><path d="M-13,539L142,617L105,497Z" fill="#ff6960" stroke="#ff6960"/><path d="M105,497L142,617L215,576Z" fill="#fe6258" stroke="#fe6258"/><path d="M215,576L142,617L267,697Z" fill="#fe5d52" stroke="#fe5d52"/><path d="M215,576L267,697L264,545Z" fill="#fe5a4d" stroke="#fe5a4d"/><path d="M264,545L267,697L361,600Z" fill="#fe5548" stroke="#fe5548"/><path d="M470,539L361,600L458,789Z" fill="#fe4939" stroke="#fe4939"/><path d="M470,539L458,789L594,663Z" fill="#fb4032" stroke="#fb4032"/><path d="M470,539L594,663L577,580Z" fill="#fa3b2f" stroke="#fa3b2f"/><path d="M577,580L594,663L647,662Z" fill="#f73429" stroke="#f73429"/><path d="M577,580L647,662L682,572Z" fill="#f63127" stroke="#f63127"/><path d="M682,572L647,662L752,632Z" fill="#f42a21" stroke="#f42a21"/><path d="M682,572L752,632L750,523Z" fill="#f3261e" stroke="#f3261e"/><path d="M750,523L752,632L933,485Z" fill="#f01c17" stroke="#f01c17"/><path d="M933,485L752,632L958,639Z" fill="#ee1311" stroke="#ee1311"/><path d="M933,485L958,639L995,493Z" fill="#eb0a0a" stroke="#eb0a0a"/><path d="M995,493L958,639L994,646Z" fill="#ea0708" stroke="#ea0708"/><path d="M995,493L994,646L1108,652Z" fill="#e80203" stroke="#e80203"/><path d="M995,493L1108,652L1141,507Z" fill="#e70000" stroke="#e70000"/><path d="M1141,507L1108,652L1283,549Z" fill="#e30000" stroke="#e30000"/><path d="M1283,549L1108,652L1311,716Z" fill="#e10000" stroke="#e10000"/><path d="M1283,549L1311,716L1403,645Z" fill="#de0000" stroke="#de0000"/><path d="M1283,549L1403,645L1322,516Z" fill="#de0000" stroke="#de0000"/><path d="M-48,645L-111,776L62,693Z" fill="#ff736d" stroke="#ff736d"/><path d="M62,693L-111,776L111,726Z" fill="#ff6e67" stroke="#ff6e67"/><path d="M62,693L111,726L142,617Z" fill="#ff675d" stroke="#ff675d"/><path d="M142,617L111,726L267,697Z" fill="#fe6056" stroke="#fe6056"/><path d="M267,697L111,726L210,839Z" fill="#fe5e53" stroke="#fe5e53"/><path d="M267,697L210,839L290,743Z" fill="#fe594c" stroke="#fe594c"/><path d="M267,697L290,743L361,600Z" fill="#fe5447" stroke="#fe5447"/><path d="M361,600L290,743L458,789Z" fill="#fe4e40" stroke="#fe4e40"/><path d="M594,663L458,789L561,806Z" fill="#fa3c2f" stroke="#fa3c2f"/><path d="M594,663L561,806L666,773Z" fill="#f73429" stroke="#f73429"/><path d="M594,663L666,773L647,662Z" fill="#f63127" stroke="#f63127"/><path d="M647,662L666,773L752,632Z" fill="#f52a22" stroke="#f52a22"/><path d="M752,632L666,773L830,729Z" fill="#f2231d" stroke="#f2231d"/><path d="M752,632L830,729L958,639Z" fill="#ef1814" stroke="#ef1814"/><path d="M958,639L830,729L903,741Z" fill="#ed120f" stroke="#ed120f"/><path d="M958,639L903,741L994,646Z" fill="#eb0b0a" stroke="#eb0b0a"/><path d="M994,646L903,741L1023,778Z" fill="#eb0909" stroke="#eb0909"/><path d="M994,646L1023,778L1108,652Z" fill="#e80002" stroke="#e80002"/><path d="M1108,652L1023,778L1114,792Z" fill="#e70000" stroke="#e70000"/><path d="M1108,652L1114,792L1311,716Z" fill="#e30000" stroke="#e30000"/><path d="M1311,716L1114,792L1263,828Z" fill="#e20000" stroke="#e20000"/><path d="M1311,716L1263,828L1420,773Z" fill="#de0000" stroke="#de0000"/><path d="M1311,716L1420,773L1403,645Z" fill="#dc0000" stroke="#dc0000"/><path d="M-111,776L210,839L111,726Z" fill="#ff6a61" stroke="#ff6a61"/><path d="M210,839L1263,828L561,806Z" fill="#f52c23" stroke="#f52c23"/><path d="M210,839L561,806L458,789Z" fill="#fe4b3b" stroke="#fe4b3b"/><path d="M210,839L458,789L290,743Z" fill="#fe5345" stroke="#fe5345"/><path d="M561,806L1263,828L1114,792Z" fill="#ea0808" stroke="#ea0808"/><path d="M561,806L1114,792L1023,778Z" fill="#ed110f" stroke="#ed110f"/><path d="M561,806L1023,778L666,773Z" fill="#f2231c" stroke="#f2231c"/><path d="M666,773L1023,778L903,741Z" fill="#ee1512" stroke="#ee1512"/><path d="M666,773L903,741L830,729Z" fill="#f11d18" stroke="#f11d18"/></g></svg>